# xmcd
#
# Track frame offsets:
#	150
#	17058
#	34448
#	53282
#	68601
#	82792
#	96058
#	115999
#	134257
#	151743
#	172695
#	193422
#
# Disc length: 2858 seconds
#
# Revision: 2
# Processed by: cddbd v1.5.2PL0 Copyright (c) Steve Scherf et al.
# Submitted via: audiograbber 1.83.01
#
DISCID=8a0b280c
DTITLE=Tim McGraw - Southern Voice
DYEAR=2009
DGENRE=Country
TTITLE0=Still
TTITLE1=Ghost Town Train
TTITLE2=Good Girls
TTITLE3=I Didn't Know It At The Time
TTITLE4=It's A Business Doing Pleasure With You
TTITLE5=If I Died Today
TTITLE6=Mr. Whoever You Are
TTITLE7=Southern Voice
TTITLE8=You Had To Be There
TTITLE9=I'm Only Jesus
TTITLE10=Forever Seventeen
TTITLE11=Love You Goodbye
EXTD=
EXTT0=
EXTT1=
EXTT2=
EXTT3=
EXTT4=
EXTT5=
EXTT6=
EXTT7=
EXTT8=
EXTT9=
EXTT10=
EXTT11=
PLAYORDER=
